<svg width="559" height="280" viewBox="0 0 559 280" fill="none" xmlns="http://www.w3.org/2000/svg">
<path d="M339 90.8096C339 69.3328 303 24.5116 287 5.83607C282 1.16719 277 1.16719 272 5.83607C268 9.57117 219 62.7963 219 90.8096C222 163.644 335 166.445 339 90.8096ZM279 26.3791C300 51.591 312 70.2665 317 82.4056C270 79.6043 281 103.882 239 90.8096C239 81.4718 251 58.1275 279 26.3791Z" fill="white"/>
<path d="M20.7955 258.28C13.8835 258.28 7.7395 257.299 2.3635 255.336V240.744C6.63017 242.621 11.6222 243.56 17.3395 243.56C22.6302 243.56 26.3848 242.493 28.6035 240.36C30.9075 238.141 32.0595 234.557 32.0595 229.608V174.568H49.3395V233.448C49.3395 250.003 39.8248 258.28 20.7955 258.28ZM82.3055 258.28C78.4655 258.28 74.8815 257.597 71.5535 256.232C68.3108 254.781 65.6655 252.691 63.6175 249.96C61.6548 247.144 60.6735 243.645 60.6735 239.464C60.6735 233.491 62.7642 228.712 66.9455 225.128C71.2122 221.544 77.4842 219.752 85.7615 219.752H103.682V218.088C103.682 214.333 102.615 211.688 100.482 210.152C98.4335 208.616 94.2522 207.848 87.9375 207.848C81.0255 207.848 74.3695 208.915 67.9695 211.048V198.888C70.7855 197.779 74.1988 196.883 78.2095 196.2C82.3055 195.432 86.7428 195.048 91.5215 195.048C100.652 195.048 107.692 196.925 112.642 200.68C117.676 204.349 120.194 210.28 120.194 218.472V257H105.218L104.322 251.496C101.932 253.629 98.9882 255.293 95.4895 256.488C91.9908 257.683 87.5962 258.28 82.3055 258.28ZM87.0415 246.888C90.8815 246.888 94.2095 246.248 97.0255 244.968C99.8415 243.688 102.06 242.067 103.682 240.104V230.504H86.1455C79.4042 230.504 76.0335 233.277 76.0335 238.824C76.0335 244.2 79.7028 246.888 87.0415 246.888ZM144.231 279.528C141.585 279.528 139.239 279.357 137.191 279.016C135.143 278.76 133.137 278.248 131.175 277.48V265.32C132.625 265.832 133.948 266.173 135.143 266.344C136.423 266.515 137.703 266.6 138.983 266.6C142.481 266.6 145.169 265.789 147.047 264.168C149.009 262.547 150.972 259.816 152.935 255.976L125.799 196.328H143.847L161.639 237.544L179.303 196.328H197.223L173.287 252.776C171.068 258.067 168.636 262.717 165.991 266.728C163.431 270.824 160.401 273.981 156.903 276.2C153.404 278.419 149.18 279.528 144.231 279.528ZM217.556 258.28C213.716 258.28 210.132 257.597 206.804 256.232C203.561 254.781 200.916 252.691 198.868 249.96C196.905 247.144 195.924 243.645 195.924 239.464C195.924 233.491 198.014 228.712 202.196 225.128C206.462 221.544 212.734 219.752 221.012 219.752H238.932V218.088C238.932 214.333 237.865 211.688 235.732 210.152C233.684 208.616 229.502 207.848 223.188 207.848C216.276 207.848 209.62 208.915 203.22 211.048V198.888C206.036 197.779 209.449 196.883 213.46 196.2C217.556 195.432 221.993 195.048 226.772 195.048C235.902 195.048 242.942 196.925 247.892 200.68C252.926 204.349 255.444 210.28 255.444 218.472V257H240.468L239.572 251.496C237.182 253.629 234.238 255.293 230.74 256.488C227.241 257.683 222.846 258.28 217.556 258.28ZM222.292 246.888C226.132 246.888 229.46 246.248 232.276 244.968C235.092 243.688 237.31 242.067 238.932 240.104V230.504H221.396C214.654 230.504 211.284 233.277 211.284 238.824C211.284 244.2 214.953 246.888 222.292 246.888ZM317.708 257V187.88H292.364V174.568H360.204V187.88H334.988V257H317.708ZM367.583 185.192V171.624H386.399V185.192H367.583ZM368.991 257V209.128H359.903L361.439 196.328H386.271V257H368.991ZM400.984 257V196.328H416.984L417.752 202.6C420.482 200.893 423.853 199.357 427.864 197.992C431.96 196.541 435.97 195.56 439.896 195.048V208.104C437.592 208.445 435.074 208.957 432.344 209.64C429.613 210.323 427.01 211.091 424.536 211.944C422.061 212.797 419.97 213.693 418.264 214.632V257H400.984ZM472.798 258.28C465.8 258.28 460.595 256.445 457.182 252.776C453.854 249.107 452.19 244.115 452.19 237.8V209.64H443.614V196.328H452.19V183.272L469.47 178.152V196.328H484.83L483.806 209.64H469.47V236.648C469.47 239.976 470.238 242.28 471.774 243.56C473.31 244.755 475.699 245.352 478.942 245.352C481.331 245.352 483.806 244.925 486.366 244.072V255.976C484.488 256.744 482.44 257.299 480.222 257.64C478.003 258.067 475.528 258.28 472.798 258.28ZM514.306 258.28C510.466 258.28 506.882 257.597 503.554 256.232C500.311 254.781 497.666 252.691 495.618 249.96C493.655 247.144 492.674 243.645 492.674 239.464C492.674 233.491 494.764 228.712 498.946 225.128C503.212 221.544 509.484 219.752 517.762 219.752H535.682V218.088C535.682 214.333 534.615 211.688 532.482 210.152C530.434 208.616 526.252 207.848 519.938 207.848C513.026 207.848 506.37 208.915 499.97 211.048V198.888C502.786 197.779 506.199 196.883 510.21 196.2C514.306 195.432 518.743 195.048 523.522 195.048C532.652 195.048 539.692 196.925 544.642 200.68C549.676 204.349 552.194 210.28 552.194 218.472V257H537.218L536.322 251.496C533.932 253.629 530.988 255.293 527.49 256.488C523.991 257.683 519.596 258.28 514.306 258.28ZM519.042 246.888C522.882 246.888 526.21 246.248 529.026 244.968C531.842 243.688 534.06 242.067 535.682 240.104V230.504H518.146C511.404 230.504 508.034 233.277 508.034 238.824C508.034 244.2 511.703 246.888 519.042 246.888Z" fill="white"/>
</svg>
