<svg width="560" height="560" viewBox="0 0 560 560" fill="none" xmlns="http://www.w3.org/2000/svg">
<path d="M560 256.186L510.423 297.655L526.325 360.328L461.47 364.693L437.461 424.871L382.896 390.261L328.018 424.871L304.009 364.693L239.466 360.328L255.368 297.655L205.479 256.186L255.368 214.716L239.466 152.043L304.009 147.678L328.018 87.4999L382.896 122.11L437.461 87.4999L461.47 147.678L526.325 152.043L510.423 214.716L560 256.186Z" fill="#FBCD30"/>
<path d="M382.895 144.873V371.865C445.568 371.865 496.392 321.042 496.392 258.369C496.392 195.697 445.568 144.873 382.895 144.873Z" fill="#FFF45A"/>
<path d="M269.4 258.369C269.4 321.042 320.224 371.865 382.896 371.865V144.873C320.224 144.873 269.4 195.697 269.4 258.369Z" fill="#FDE23D"/>
<path d="M449.621 350.35H437.148C437.46 346.297 437.772 341.931 437.772 337.878C437.772 276.453 387.883 226.564 326.458 226.564C284.053 226.564 246.948 250.261 228.24 285.183C217.015 277.388 202.984 272.711 188.329 272.711C149.666 272.711 118.174 304.203 118.174 342.867C118.174 345.361 118.174 347.856 118.485 350.35H67.3495C30.2449 350.35 0 380.595 0 417.699C0 454.804 30.2449 485.049 67.3495 485.049H449.621C486.725 485.049 516.97 454.804 516.97 417.699C516.97 380.595 486.725 350.35 449.621 350.35Z" fill="#E2F0E9"/>
</svg>
